<svg width="27" height="36" viewBox="0 0 27 36" fill="none" xmlns="http://www.w3.org/2000/svg">
<path d="M0 8.52867C5.30189e-06 5.52867 0.5 0.528625 3.5 0.0286661C6.45917 -0.464489 8.5 5.52867 8.5 8.52867C8.5 11.6909 7.50015 17.5287 5.00015 17.5287C2.50015 17.5287 -7.12417e-06 12.5598 0 8.52867Z" fill="#111827"/>
<path d="M13.2089 10.6342C15.612 8.83832 19.9164 6.24559 22.1128 8.34935C24.2793 10.4245 20.7004 15.647 18.2974 17.4429C15.7643 19.336 10.4897 22.0298 8.99305 20.0272C7.49645 18.0247 9.97991 13.0474 13.2089 10.6342Z" fill="#111827"/>
<path d="M19.0441 24.0286C21.6422 25.5286 25.7224 28.4617 24.6553 31.3097C23.6028 34.119 17.3922 32.8899 14.7941 31.3899C12.0555 29.8087 7.49983 26.024 8.74983 23.8589C9.99983 21.6938 15.5531 22.0131 19.0441 24.0286Z" fill="#111827"/>
</svg>
